<svg xmlns="http://www.w3.org/2000/svg" width="180" height="180" viewBox="0 0 180 180">
  <defs>
    <linearGradient id="surpriseGradApple" x1="0%" y1="0%" x2="100%" y2="100%">
      <stop offset="0%" style="stop-color:#EC4899"/>
      <stop offset="100%" style="stop-color:#DB2777"/>
    </linearGradient>
  </defs>
  <!-- Background -->
  <rect width="180" height="180" rx="40" fill="url(#surpriseGradApple)"/>
  <!-- Gift Box -->
  <rect x="40" y="80" width="100" height="70" rx="5" fill="white"/>
  <rect x="40" y="70" width="100" height="20" rx="4" fill="#FDE68A"/>
  <!-- Ribbon -->
  <rect x="84" y="70" width="12" height="80" fill="#EC4899"/>
  <!-- Bow -->
  <ellipse cx="74" cy="66" rx="16" ry="12" fill="#EC4899"/>
  <ellipse cx="106" cy="66" rx="16" ry="12" fill="#EC4899"/>
  <circle cx="90" cy="66" r="10" fill="#DB2777"/>
  <!-- Sparkles -->
  <circle cx="30" cy="40" r="4" fill="white"/>
  <circle cx="150" cy="50" r="4" fill="white"/>
  <circle cx="50" cy="140" r="3" fill="white"/>
  <circle cx="140" cy="130" r="3" fill="white"/>
  <!-- Heart -->
  <path d="M90 35 C82 28 70 28 70 38 C70 46 80 54 90 62 C100 54 110 46 110 38 C110 28 98 28 90 35" fill="white"/>
</svg>
