<svg xmlns="http://www.w3.org/2000/svg" width="32" height="32" viewBox="0 0 32 32">
  <defs>
    <linearGradient id="surpriseGrad" x1="0%" y1="0%" x2="100%" y2="100%">
      <stop offset="0%" style="stop-color:#EC4899"/>
      <stop offset="100%" style="stop-color:#DB2777"/>
    </linearGradient>
  </defs>
  <!-- Background -->
  <rect width="32" height="32" rx="6" fill="url(#surpriseGrad)"/>
  <!-- Gift Box -->
  <rect x="7" y="14" width="18" height="13" rx="2" fill="white"/>
  <rect x="7" y="11" width="18" height="4" rx="1" fill="#FDE68A"/>
  <!-- Ribbon -->
  <rect x="14" y="11" width="4" height="16" fill="#EC4899"/>
  <!-- Bow -->
  <ellipse cx="12" cy="10" rx="4" ry="3" fill="#EC4899"/>
  <ellipse cx="20" cy="10" rx="4" ry="3" fill="#EC4899"/>
  <circle cx="16" cy="10" r="2.5" fill="#DB2777"/>
  <!-- Sparkles -->
  <circle cx="5" cy="7" r="1" fill="white"/>
  <circle cx="27" cy="8" r="1" fill="white"/>
  <!-- Heart -->
  <path d="M16 6 C14 4 11 4 11 6 C11 7 13 9 16 11 C19 9 21 7 21 6 C21 4 18 4 16 6" fill="white" transform="scale(0.5) translate(16, -2)"/>
</svg>
