<svg xmlns="http://www.w3.org/2000/svg" viewBox="0 0 100 100">
  <defs>
    <linearGradient id="surpriseGrad" x1="0%" y1="0%" x2="100%" y2="100%">
      <stop offset="0%" style="stop-color:#EC4899"/>
      <stop offset="100%" style="stop-color:#DB2777"/>
    </linearGradient>
  </defs>
  <!-- Background Circle -->
  <circle cx="50" cy="50" r="48" fill="url(#surpriseGrad)"/>
  <!-- Gift Box -->
  <rect x="25" y="45" width="50" height="35" rx="3" fill="white"/>
  <rect x="25" y="40" width="50" height="10" rx="2" fill="#FDE68A"/>
  <!-- Ribbon -->
  <rect x="47" y="40" width="6" height="40" fill="#EC4899"/>
  <!-- Bow -->
  <ellipse cx="42" cy="38" rx="8" ry="6" fill="#EC4899"/>
  <ellipse cx="58" cy="38" rx="8" ry="6" fill="#EC4899"/>
  <circle cx="50" cy="38" r="5" fill="#DB2777"/>
  <!-- Sparkles -->
  <circle cx="20" cy="25" r="2" fill="white"/>
  <circle cx="80" cy="30" r="2" fill="white"/>
  <circle cx="30" cy="75" r="1.5" fill="white"/>
  <circle cx="75" cy="70" r="1.5" fill="white"/>
  <!-- Heart -->
  <path d="M50 22 C45 18 38 18 38 24 C38 28 42 32 50 38 C58 32 62 28 62 24 C62 18 55 18 50 22" fill="white"/>
</svg>
